<?xml version="1.0" encoding="utf-8"?>
<!-- Generator: Adobe Illustrator 24.1.1, SVG Export Plug-In . SVG Version: 6.00 Build 0)  -->
<svg version="1.1" id="Layer_1" xmlns="http://www.w3.org/2000/svg" xmlns:xlink="http://www.w3.org/1999/xlink" x="0px" y="0px"
	 viewBox="0 0 512 512" style="enable-background:new 0 0 512 512;" xml:space="preserve">
<style type="text/css">
	.st0{fill:#333333;}
</style>
<g id="XMLID_2_">
	<path id="XMLID_7_" class="st0" d="M341.2,0.3c-17,1.7-35.8,10.2-50.3,24.7L233,82.1c-29,29-36.6,75-12.8,98.8l6,6L331,81.2
		c6.8-6.8,17-6.8,23.8-0.9l75,75c6.8,6.8,6.8,17-0.9,23.8L324.1,284.8l6,6c23.8,23.8,69,17,98.8-12.8l57.1-57.9
		c29-29,34.1-72.4,10.2-96.2l-109-108.2C375.2,3.7,358.2-1.4,341.2,0.3L341.2,0.3z M304.5,159.6c-6.8,0-13.6,2.6-19.6,7.7
		L168.3,284.8c-11.1,11.1-11.1,28.1,0,39.2l19.6,19.6c11.1,11.1,28.1,11.1,39.2,0L344.6,226c11.1-11.1,11.1-28.1,0-39.2l-20.4-18.7
		C319,162.2,312.2,159.6,304.5,159.6z M147.8,206.4c-21.3-0.9-46.8,8.5-64.7,26.4L26,290.8c-29,29-34.1,72.4-10.2,96.2l109.9,109.9
		c23.8,23.8,66.4,18.7,96.2-10.2l57.9-57.1c29-29,36.6-75,12.8-98.8L285,324L180.2,429.6c-6.8,6.8-17,6.8-23.8,0l-75-75
		c-6.8-6.8-6.8-17,0-23.8l106.5-103.9l-6-6C172.5,211.6,161.5,207.3,147.8,206.4L147.8,206.4z"/>
</g>
</svg>
